<svg width="77.172882" height="77.172882" viewBox="0 0 77.1729 77.1729" fill="none" xmlns="http://www.w3.org/2000/svg" xmlns:xlink="http://www.w3.org/1999/xlink">
	<desc>
			Created with Pixso.
	</desc>
	<path d="M45.1417 74.4576C41.5213 78.078 35.6516 78.078 32.0312 74.4576C29.5483 71.9747 28.6813 68.302 29.7917 64.9708L38.5864 38.5864L12.2021 47.3812C8.87087 48.4916 5.19821 47.6246 2.71527 45.1417C-0.90509 41.5213 -0.90509 35.6516 2.71527 32.0312L32.0312 2.71527C35.6516 -0.90509 41.5213 -0.90509 45.1417 2.71527C47.6246 5.19821 48.4916 8.87088 47.3812 12.2021L38.5864 38.5864L64.9708 29.7917C68.302 28.6813 71.9747 29.5482 74.4576 32.0312C78.078 35.6516 78.078 41.5213 74.4576 45.1417L45.1417 74.4576Z" fill-rule="evenodd" fill="#3C61FF"/>
	<defs/>
</svg>
